<svg xmlns="http://www.w3.org/2000/svg" viewBox="-563.9440312157054 -150.0 1127.8880624314108 235.0" width="2400" height="500"><g transform="translate(0,0)"><svg x="-534.8433117912449" y="-139.92805755395685" width="179.85611510791367" height="179.85611510791367" viewBox="0 0 1000 1000" overflow="visible"><g transform="translate(149.0,774.1700000000001) scale(0.78,-0.78)" fill="#C7A36A"><path d="M907 708V688Q888 684 865.0 665.5Q842 647 828 601L639 -5Q637 -5 635.0 -5.0Q633 -5 631 -5Q629 -5 627.0 -5.0Q625 -5 623 -5L411 624Q398 663 382.0 675.0Q366 687 352 688V708Q370 707 397.0 706.0Q424 705 449 705Q488 705 522.0 706.0Q556 707 577 708V688Q547 687 529.5 682.0Q512 677 509.5 660.0Q507 643 519 604L668 143L654 131L786 546Q804 601 802.5 631.5Q801 662 780.0 674.5Q759 687 717 688V708Q746 707 776.0 706.0Q806 705 832 705Q858 705 875.0 706.0Q892 707 907 708ZM208 708V688Q182 686 170.5 678.0Q159 670 159.5 652.5Q160 635 170 604L325 131L300 106L440 553L455 529L290 -5Q288 -5 286.0 -5.0Q284 -5 282 -5Q280 -5 278.0 -5.0Q276 -5 274 -5L62 624Q49 663 29.0 675.0Q9 687 -7 688V708Q13 707 42.5 706.0Q72 705 100 705Q133 705 161.5 706.0Q190 707 208 708Z"/></g><g fill="#C7A36A"><g transform="translate(657,272) rotate(38) scale(0.72)"><path d="M -5.5 124.5 L -5.5 -224.5 a 5.5 5.5 0 0 1 11 0 L 5.5 124.5 a 5.5 5.5 0 0 1 -11 0 Z"/><path fill-rule="evenodd" d="M -42 0 a 42 55 0 1 0 84 0 a 42 55 0 1 0 -84 0 Z M -13 -18 a 13 13 0 1 0 26 0 a 13 13 0 1 0 -26 0 Z"/></g></g></svg><g fill="#C7A36A" transform="translate(-368.1746128520912,0)"><path transform="translate(0.00,0) scale(0.14124,-0.14124)" d="M460 0V20Q494 22 511.5 28.0Q529 34 535.0 52.0Q541 70 541 106V602Q541 639 535.0 656.5Q529 674 511.5 680.5Q494 687 460 688V708Q483 707 518.0 706.0Q553 705 587 705Q626 705 660.0 706.0Q694 707 715 708V688Q681 687 663.5 680.5Q646 674 640.0 656.5Q634 639 634 602V106Q634 70 640.0 52.0Q646 34 663.5 28.0Q681 22 715 20V0Q694 2 660.0 2.5Q626 3 587 3Q553 3 518.0 2.5Q483 2 460 0ZM42 0V20Q76 22 93.5 28.0Q111 34 117.0 52.0Q123 70 123 106V602Q123 639 117.0 656.5Q111 674 93.5 680.5Q76 687 42 688V708Q63 707 97.0 706.0Q131 705 170 705Q205 705 239.5 706.0Q274 707 297 708V688Q263 687 245.5 680.5Q228 674 222.0 656.5Q216 639 216 602V106Q216 70 222.0 52.0Q228 34 245.5 28.0Q263 22 297 20V0Q274 2 239.5 2.5Q205 3 170 3Q131 3 97.0 2.5Q63 2 42 0ZM181 346V366H576V346Z"/><path transform="translate(135.17,0) scale(0.14124,-0.14124)" d="M297 708V688Q263 687 245.5 680.5Q228 674 222.0 656.5Q216 639 216 602V106Q216 70 222.0 52.0Q228 34 245.5 28.0Q263 22 297 20V0Q274 2 239.5 2.5Q205 3 170 3Q131 3 97.0 2.5Q63 2 42 0V20Q76 22 93.5 28.0Q111 34 117.0 52.0Q123 70 123 106V602Q123 639 117.0 656.5Q111 674 93.5 680.5Q76 687 42 688V708Q63 707 97.0 706.0Q131 705 170 705Q205 705 239.5 706.0Q274 707 297 708Z"/><path transform="translate(211.30,0) scale(0.14124,-0.14124)" d="M256 719Q306 719 332.0 707.5Q358 696 378 682Q390 675 397.5 671.5Q405 668 412 668Q422 668 426.5 679.0Q431 690 434 712H457Q456 695 454.5 671.5Q453 648 452.5 609.5Q452 571 452 508H429Q426 556 408.0 600.0Q390 644 355.5 672.0Q321 700 265 700Q212 700 177.5 668.0Q143 636 143 584Q143 539 166.0 508.5Q189 478 227.5 453.5Q266 429 311 401Q363 369 403.5 337.5Q444 306 467.5 268.0Q491 230 491 176Q491 112 462.0 70.0Q433 28 385.0 7.0Q337 -14 279 -14Q226 -14 195.0 -2.0Q164 10 142 23Q120 37 108 37Q98 37 93.5 26.0Q89 15 86 -7H63Q65 14 65.5 42.5Q66 71 66.5 117.0Q67 163 67 233H90Q94 173 112.5 121.0Q131 69 169.5 37.5Q208 6 272 6Q305 6 334.5 19.5Q364 33 383.0 62.5Q402 92 402 139Q402 180 382.5 210.5Q363 241 328.0 267.5Q293 294 246 322Q199 351 158.0 381.0Q117 411 92.5 450.5Q68 490 68 546Q68 605 94.5 643.5Q121 682 164.0 700.5Q207 719 256 719Z"/><path transform="translate(315.82,0) scale(0.14124,-0.14124)" d="M42 708Q63 707 97.0 706.0Q131 705 164 705Q211 705 254.0 706.0Q297 707 315 707Q436 707 496.0 652.0Q556 597 556 510Q556 474 544.0 434.5Q532 395 502.5 361.5Q473 328 422.0 307.0Q371 286 293 286H197V306H283Q354 306 391.5 333.0Q429 360 442.5 404.0Q456 448 456 499Q456 594 418.5 641.0Q381 688 290 688Q244 688 230.0 671.0Q216 654 216 602V106Q216 70 223.5 52.0Q231 34 253.0 28.0Q275 22 317 20V0Q291 2 251.0 2.5Q211 3 170 3Q131 3 97.0 2.5Q63 2 42 0V20Q76 22 93.5 28.0Q111 34 117.0 52.0Q123 70 123 106V602Q123 639 117.0 656.5Q111 674 93.5 680.5Q76 687 42 688Z"/><path transform="translate(426.69,0) scale(0.14124,-0.14124)" d="M541 708Q537 673 535.5 640.0Q534 607 534 590Q534 572 535.0 555.5Q536 539 537 528H514Q508 587 497.0 621.5Q486 656 459.5 670.5Q433 685 380 685H297Q263 685 245.5 679.5Q228 674 222.0 656.5Q216 639 216 602V106Q216 70 222.0 52.0Q228 34 245.5 28.5Q263 23 297 23H370Q433 23 465.5 40.0Q498 57 512.5 95.5Q527 134 534 200H557Q554 173 554 128Q554 109 555.5 73.5Q557 38 561 0Q510 2 446.0 2.5Q382 3 332 3Q310 3 275.5 3.0Q241 3 201.0 2.5Q161 2 120.0 1.5Q79 1 42 0V20Q76 22 93.5 28.0Q111 34 117.0 52.0Q123 70 123 106V602Q123 639 117.0 656.5Q111 674 93.5 680.5Q76 687 42 688V708Q79 707 120.0 706.5Q161 706 201.0 705.5Q241 705 275.5 705.0Q310 705 332 705Q378 705 436.5 705.5Q495 706 541 708ZM369 366Q369 366 369.0 356.0Q369 346 369 346H186Q186 346 186.0 356.0Q186 366 186 366ZM398 498Q394 441 394.5 411.0Q395 381 395 356Q395 331 396.0 301.0Q397 271 401 214H378Q374 246 368.5 276.5Q363 307 344.5 326.5Q326 346 282 346V366Q315 366 332.5 379.5Q350 393 358.0 414.0Q366 435 369.0 457.5Q372 480 375 498Z"/><path transform="translate(540.96,0) scale(0.14124,-0.14124)" d="M42 708Q63 707 97.0 706.0Q131 705 164 705Q211 705 254.0 706.0Q297 707 315 707Q396 707 449.5 684.0Q503 661 529.5 621.5Q556 582 556 533Q556 503 544.0 469.0Q532 435 502.5 405.0Q473 375 422.0 355.5Q371 336 293 336H197V356H283Q354 356 391.5 378.5Q429 401 442.5 438.5Q456 476 456 522Q456 601 418.5 644.5Q381 688 290 688Q244 688 230.0 671.0Q216 654 216 602V106Q216 70 222.0 52.0Q228 34 245.5 28.0Q263 22 297 20V0Q274 2 239.5 2.5Q205 3 170 3Q131 3 97.0 2.5Q63 2 42 0V20Q76 22 93.5 28.0Q111 34 117.0 52.0Q123 70 123 106V602Q123 639 117.0 656.5Q111 674 93.5 680.5Q76 687 42 688ZM201 353Q255 351 286.0 348.5Q317 346 336.5 344.0Q356 342 374 339Q441 328 470.5 298.5Q500 269 514 207L539 105Q549 61 559.5 41.5Q570 22 592 23Q609 24 620.5 34.0Q632 44 645 61L660 50Q639 19 616.5 2.5Q594 -14 553 -14Q516 -14 488.0 8.0Q460 30 446 94L424 194Q415 237 403.5 268.5Q392 300 371.5 318.0Q351 336 311 336H203Z"/><path transform="translate(660.73,0) scale(0.14124,-0.14124)" d="M541 708Q537 673 535.5 640.0Q534 607 534 590Q534 572 535.0 555.5Q536 539 537 528H514Q508 587 497.0 621.5Q486 656 459.5 670.5Q433 685 380 685H297Q263 685 245.5 679.5Q228 674 222.0 656.5Q216 639 216 602V106Q216 70 222.0 52.0Q228 34 245.5 28.5Q263 23 297 23H370Q433 23 465.5 40.0Q498 57 512.5 95.5Q527 134 534 200H557Q554 173 554 128Q554 109 555.5 73.5Q557 38 561 0Q510 2 446.0 2.5Q382 3 332 3Q310 3 275.5 3.0Q241 3 201.0 2.5Q161 2 120.0 1.5Q79 1 42 0V20Q76 22 93.5 28.0Q111 34 117.0 52.0Q123 70 123 106V602Q123 639 117.0 656.5Q111 674 93.5 680.5Q76 687 42 688V708Q79 707 120.0 706.5Q161 706 201.0 705.5Q241 705 275.5 705.0Q310 705 332 705Q378 705 436.5 705.5Q495 706 541 708ZM369 366Q369 366 369.0 356.0Q369 346 369 346H186Q186 346 186.0 356.0Q186 366 186 366ZM398 498Q394 441 394.5 411.0Q395 381 395 356Q395 331 396.0 301.0Q397 271 401 214H378Q374 246 368.5 276.5Q363 307 344.5 326.5Q326 346 282 346V366Q315 366 332.5 379.5Q350 393 358.0 414.0Q366 435 369.0 457.5Q372 480 375 498Z"/><path transform="translate(775.00,0) scale(0.14124,-0.14124)" d="M315 708Q494 708 581.0 618.5Q668 529 668 362Q668 253 625.5 171.5Q583 90 502.0 45.0Q421 0 306 0Q291 0 266.0 1.0Q241 2 214.5 2.5Q188 3 166 3Q131 3 97.0 2.5Q63 2 42 0V20Q76 22 93.5 28.0Q111 34 117.0 52.0Q123 70 123 106V602Q123 639 117.0 656.5Q111 674 93.5 680.5Q76 687 42 688V708Q63 707 97.0 705.5Q131 704 164 705Q199 706 243.0 707.0Q287 708 315 708ZM290 690Q244 690 230.0 673.0Q216 656 216 604V104Q216 52 230.5 35.0Q245 18 291 18Q400 18 460.0 57.5Q520 97 544.0 173.0Q568 249 568 358Q568 470 541.5 543.5Q515 617 454.5 653.5Q394 690 290 690Z"/></g><g fill="#C7A36A" transform="translate(-102.22500000000001,66.0)"><path transform="translate(0.00,0) scale(0.03000,-0.03000)" d="M541 708Q537 673 535.5 640.0Q534 607 534 590Q534 572 535.0 555.5Q536 539 537 528H514Q508 587 497.0 621.5Q486 656 459.5 670.5Q433 685 380 685H297Q263 685 245.5 679.5Q228 674 222.0 656.5Q216 639 216 602V106Q216 70 222.0 52.0Q228 34 245.5 28.5Q263 23 297 23H370Q433 23 465.5 40.0Q498 57 512.5 95.5Q527 134 534 200H557Q554 173 554 128Q554 109 555.5 73.5Q557 38 561 0Q510 2 446.0 2.5Q382 3 332 3Q310 3 275.5 3.0Q241 3 201.0 2.5Q161 2 120.0 1.5Q79 1 42 0V20Q76 22 93.5 28.0Q111 34 117.0 52.0Q123 70 123 106V602Q123 639 117.0 656.5Q111 674 93.5 680.5Q76 687 42 688V708Q79 707 120.0 706.5Q161 706 201.0 705.5Q241 705 275.5 705.0Q310 705 332 705Q378 705 436.5 705.5Q495 706 541 708ZM369 366Q369 366 369.0 356.0Q369 346 369 346H186Q186 346 186.0 356.0Q186 366 186 366ZM398 498Q394 441 394.5 411.0Q395 381 395 356Q395 331 396.0 301.0Q397 271 401 214H378Q374 246 368.5 276.5Q363 307 344.5 326.5Q326 346 282 346V366Q315 366 332.5 379.5Q350 393 358.0 414.0Q366 435 369.0 457.5Q372 480 375 498Z"/><path transform="translate(36.87,0) scale(0.03000,-0.03000)" d="M637 708V688Q618 684 596.5 665.0Q575 646 558 601L323 -5Q321 -5 319.0 -5.0Q317 -5 315 -5Q313 -5 311.0 -5.0Q309 -5 307 -5L63 624Q48 662 29.0 674.5Q10 687 -6 688V708Q14 707 43.5 706.0Q73 705 101 705Q140 705 174.0 706.0Q208 707 229 708V688Q195 687 177.5 680.0Q160 673 158.5 655.5Q157 638 170 604L356 111L340 94L514 546Q535 600 534.0 630.5Q533 661 511.0 674.0Q489 687 447 688V708Q476 707 506.0 706.0Q536 705 562 705Q588 705 605.0 706.0Q622 707 637 708Z"/><path transform="translate(74.37,0) scale(0.03000,-0.03000)" d="M541 708Q537 673 535.5 640.0Q534 607 534 590Q534 572 535.0 555.5Q536 539 537 528H514Q508 587 497.0 621.5Q486 656 459.5 670.5Q433 685 380 685H297Q263 685 245.5 679.5Q228 674 222.0 656.5Q216 639 216 602V106Q216 70 222.0 52.0Q228 34 245.5 28.5Q263 23 297 23H370Q433 23 465.5 40.0Q498 57 512.5 95.5Q527 134 534 200H557Q554 173 554 128Q554 109 555.5 73.5Q557 38 561 0Q510 2 446.0 2.5Q382 3 332 3Q310 3 275.5 3.0Q241 3 201.0 2.5Q161 2 120.0 1.5Q79 1 42 0V20Q76 22 93.5 28.0Q111 34 117.0 52.0Q123 70 123 106V602Q123 639 117.0 656.5Q111 674 93.5 680.5Q76 687 42 688V708Q79 707 120.0 706.5Q161 706 201.0 705.5Q241 705 275.5 705.0Q310 705 332 705Q378 705 436.5 705.5Q495 706 541 708ZM369 366Q369 366 369.0 356.0Q369 346 369 346H186Q186 346 186.0 356.0Q186 366 186 366ZM398 498Q394 441 394.5 411.0Q395 381 395 356Q395 331 396.0 301.0Q397 271 401 214H378Q374 246 368.5 276.5Q363 307 344.5 326.5Q326 346 282 346V366Q315 366 332.5 379.5Q350 393 358.0 414.0Q366 435 369.0 457.5Q372 480 375 498Z"/><path transform="translate(111.24,0) scale(0.03000,-0.03000)" d="M670 708V688Q636 687 618.5 678.0Q601 669 595.0 649.0Q589 629 589 592V-5Q583 -5 577.5 -5.0Q572 -5 566 -5L146 644V116Q146 80 152.5 59.5Q159 39 178.5 30.5Q198 22 237 20V0Q219 2 190.0 2.5Q161 3 135 3Q110 3 84.5 2.5Q59 2 42 0V20Q76 22 93.5 30.5Q111 39 117.0 59.5Q123 80 123 116V602Q123 639 117.0 656.5Q111 674 93.5 680.5Q76 687 42 688V708Q59 707 84.5 706.0Q110 705 135 705Q157 705 177.0 706.0Q197 707 213 708L566 164V592Q566 629 559.5 649.0Q553 669 533.5 678.0Q514 687 475 688V708Q493 707 522.5 706.0Q552 705 577 705Q603 705 628.5 706.0Q654 707 670 708Z"/><path transform="translate(151.02,0) scale(0.03000,-0.03000)" d="M592 708Q588 670 586.5 634.5Q585 599 585 580Q585 556 586.0 535.0Q587 514 588 498H565Q558 568 546.0 608.5Q534 649 504.0 667.0Q474 685 411 685H357V116Q357 76 364.5 56.0Q372 36 394.0 29.0Q416 22 458 20V0Q432 2 392.0 2.5Q352 3 311 3Q266 3 226.5 2.5Q187 2 163 0V20Q205 22 227.0 29.0Q249 36 256.5 56.0Q264 76 264 116V685H210Q148 685 117.5 667.0Q87 649 75.0 608.5Q63 568 56 498H33Q35 514 35.5 535.0Q36 556 36 580Q36 599 34.5 634.5Q33 670 29 708Q71 707 120.5 706.0Q170 705 220.0 705.0Q270 705 311 705Q352 705 401.5 705.0Q451 705 501.0 706.0Q551 707 592 708Z"/><path transform="translate(188.25,0) scale(0.03000,-0.03000)" d="M256 719Q306 719 332.0 707.5Q358 696 378 682Q390 675 397.5 671.5Q405 668 412 668Q422 668 426.5 679.0Q431 690 434 712H457Q456 695 454.5 671.5Q453 648 452.5 609.5Q452 571 452 508H429Q426 556 408.0 600.0Q390 644 355.5 672.0Q321 700 265 700Q212 700 177.5 668.0Q143 636 143 584Q143 539 166.0 508.5Q189 478 227.5 453.5Q266 429 311 401Q363 369 403.5 337.5Q444 306 467.5 268.0Q491 230 491 176Q491 112 462.0 70.0Q433 28 385.0 7.0Q337 -14 279 -14Q226 -14 195.0 -2.0Q164 10 142 23Q120 37 108 37Q98 37 93.5 26.0Q89 15 86 -7H63Q65 14 65.5 42.5Q66 71 66.5 117.0Q67 163 67 233H90Q94 173 112.5 121.0Q131 69 169.5 37.5Q208 6 272 6Q305 6 334.5 19.5Q364 33 383.0 62.5Q402 92 402 139Q402 180 382.5 210.5Q363 241 328.0 267.5Q293 294 246 322Q199 351 158.0 381.0Q117 411 92.5 450.5Q68 490 68 546Q68 605 94.5 643.5Q121 682 164.0 700.5Q207 719 256 719Z"/></g><line x1="-508.94403121570537" y1="55.2" x2="-123.22500000000001" y2="55.2" stroke="#C7A36A" stroke-width="2.0"/><line x1="123.22500000000001" y1="55.2" x2="508.94403121570537" y2="55.2" stroke="#C7A36A" stroke-width="2.0"/></g></svg>