<svg xmlns="http://www.w3.org/2000/svg" viewBox="71.6 31.1 856.8 856.8" width="1024" height="1024"><g transform="translate(149.0,774.1700000000001) scale(0.78,-0.78)" fill="#C7A36A"><path d="M907 708V688Q888 684 865.0 665.5Q842 647 828 601L639 -5Q637 -5 635.0 -5.0Q633 -5 631 -5Q629 -5 627.0 -5.0Q625 -5 623 -5L411 624Q398 663 382.0 675.0Q366 687 352 688V708Q370 707 397.0 706.0Q424 705 449 705Q488 705 522.0 706.0Q556 707 577 708V688Q547 687 529.5 682.0Q512 677 509.5 660.0Q507 643 519 604L668 143L654 131L786 546Q804 601 802.5 631.5Q801 662 780.0 674.5Q759 687 717 688V708Q746 707 776.0 706.0Q806 705 832 705Q858 705 875.0 706.0Q892 707 907 708ZM208 708V688Q182 686 170.5 678.0Q159 670 159.5 652.5Q160 635 170 604L325 131L300 106L440 553L455 529L290 -5Q288 -5 286.0 -5.0Q284 -5 282 -5Q280 -5 278.0 -5.0Q276 -5 274 -5L62 624Q49 663 29.0 675.0Q9 687 -7 688V708Q13 707 42.5 706.0Q72 705 100 705Q133 705 161.5 706.0Q190 707 208 708Z"/></g><g fill="#C7A36A"><g transform="translate(657,272) rotate(38) scale(0.72)"><path d="M -5.5 124.5 L -5.5 -224.5 a 5.5 5.5 0 0 1 11 0 L 5.5 124.5 a 5.5 5.5 0 0 1 -11 0 Z"/><path fill-rule="evenodd" d="M -42 0 a 42 55 0 1 0 84 0 a 42 55 0 1 0 -84 0 Z M -13 -18 a 13 13 0 1 0 26 0 a 13 13 0 1 0 -26 0 Z"/></g></g></svg>